<?xml version="1.0" encoding="utf-8"?>
<!-- Generator: Adobe Illustrator 24.0.1, SVG Export Plug-In . SVG Version: 6.00 Build 0)  -->
<svg version="1.1" id="Layer_1" xmlns="http://www.w3.org/2000/svg" xmlns:xlink="http://www.w3.org/1999/xlink" x="0px" y="0px"
	 viewBox="0 0 4000 2416" style="enable-background:new 0 0 4000 2416;" xml:space="preserve">
<style type="text/css">
	.st0{fill:url(#SVGID_1_);}
	.st1{fill:url(#SVGID_2_);}
	.st2{fill:url(#SVGID_3_);}
	.st3{fill:url(#SVGID_4_);}
	.st4{fill:url(#SVGID_5_);}
	.st5{fill:url(#SVGID_6_);}
	.st6{fill:url(#SVGID_7_);}
	.st7{fill:url(#SVGID_8_);}
	.st8{fill:url(#SVGID_9_);}
	.st9{fill:url(#SVGID_10_);}
</style>
<g>
	<g>
		<g>
			<linearGradient id="SVGID_1_" gradientUnits="userSpaceOnUse" x1="736.4221" y1="940.8493" x2="650.4114" y2="821.678">
				<stop  offset="0.014" style="stop-color:#25277B"/>
				<stop  offset="1" style="stop-color:#7953A9"/>
			</linearGradient>
			<path class="st0" d="M718.13,810.51c-39.34-13.46-82.14,7.53-95.6,46.88c-13.45,39.34,7.53,82.14,46.88,95.6
				c39.34,13.46,82.15-7.53,95.6-46.88C778.46,866.77,757.48,823.97,718.13,810.51z"/>
			<linearGradient id="SVGID_2_" gradientUnits="userSpaceOnUse" x1="1089.0278" y1="1090.7559" x2="1222.707" y2="1032.7246">
				<stop  offset="0.014" style="stop-color:#25277B"/>
				<stop  offset="1" style="stop-color:#7953A9"/>
			</linearGradient>
			<path class="st1" d="M1178.65,991.19c-39.34-13.46-82.15,7.53-95.6,46.88c-13.45,39.34,7.53,82.14,46.88,95.6
				c39.34,13.46,82.15-7.53,95.6-46.88C1238.98,1047.45,1218,1004.64,1178.65,991.19z"/>
			<linearGradient id="SVGID_3_" gradientUnits="userSpaceOnUse" x1="570.23" y1="1313.9594" x2="446.9137" y2="1394.7886">
				<stop  offset="0.014" style="stop-color:#25277B"/>
				<stop  offset="1" style="stop-color:#7953A9"/>
			</linearGradient>
			<path class="st2" d="M533.43,1282.81c-39.34-13.46-82.14,7.53-95.6,46.88c-13.46,39.34,7.53,82.15,46.88,95.6
				c39.34,13.45,82.14-7.53,95.6-46.88C593.76,1339.07,572.78,1296.26,533.43,1282.81z"/>
			<linearGradient id="SVGID_4_" gradientUnits="userSpaceOnUse" x1="934.3547" y1="1472.495" x2="1025.5466" y2="1590.63">
				<stop  offset="0.014" style="stop-color:#25277B"/>
				<stop  offset="1" style="stop-color:#7953A9"/>
			</linearGradient>
			<path class="st3" d="M1003.24,1458.93c-39.34-13.46-82.15,7.53-95.6,46.87c-13.46,39.35,7.53,82.15,46.88,95.6
				c39.34,13.46,82.15-7.53,95.6-46.87C1063.57,1515.18,1042.58,1472.38,1003.24,1458.93z"/>
			<linearGradient id="SVGID_5_" gradientUnits="userSpaceOnUse" x1="905.4028" y1="1307.9895" x2="407.9921" y2="1003.3254">
				<stop  offset="0.014" style="stop-color:#25277B"/>
				<stop  offset="1" style="stop-color:#7953A9"/>
			</linearGradient>
			<path class="st4" d="M700.4,1313.59c-48.26-33.03-88.39-79.03-114.08-135.99c-8.55-18.95-15.56-39.06-20.68-60.35
				c17.06-13.68,34.91-25.27,53.25-35.01c18.59-40.48,42.41-78,70.66-111.68c-104.05-1.55-229.24,19.65-334.1,104.33
				c0,0,77.74-0.51,146.09,115.13c3.67,7.01,11.6,20.89,11.67,21.02l0.01-0.03c16.02,27.02,34.61,51.81,55.19,74.39
				c44.74,49.1,99.16,87.39,158.85,113.22c11.41,4.94,22.99,9.47,34.76,13.5c0.17,0.06,2.34,0.81,6.3,2.05
				c9.68,3.16,19.46,6,29.32,8.54c26.99-13.3,51.65-30.42,73.32-50.79C809.99,1368.33,750.79,1348.09,700.4,1313.59z"/>
			<linearGradient id="SVGID_6_" gradientUnits="userSpaceOnUse" x1="748.3807" y1="1112.1085" x2="1261.3356" y2="1405.3737">
				<stop  offset="0.014" style="stop-color:#25277B"/>
				<stop  offset="1" style="stop-color:#7953A9"/>
			</linearGradient>
			<path class="st5" d="M1161.82,1226.43c-3.67-7-11.6-20.87-11.66-21l-0.01,0.03c-16.02-27.02-34.61-51.81-55.19-74.4
				c-44.75-49.1-99.17-87.39-158.86-113.22c-11.4-4.93-22.96-9.46-34.7-13.48c0,0-2.25-0.78-6.42-2.09
				c-9.66-3.15-19.42-5.99-29.26-8.51c-26.99,13.3-51.65,30.42-73.32,50.79c60.96,3.59,120.16,23.83,170.56,58.33
				c48.25,33.03,88.39,79.03,114.08,136c8.55,18.95,15.56,39.06,20.68,60.35c-17.05,13.67-34.89,25.26-53.22,35
				c-18.57,40.45-42.4,77.99-70.66,111.7c104.05,1.55,229.23-19.65,334.08-104.34C1307.92,1341.57,1230.17,1342.09,1161.82,1226.43z
				"/>
			<linearGradient id="SVGID_7_" gradientUnits="userSpaceOnUse" x1="734.669" y1="1290.8958" x2="1033.1155" y2="773.7959">
				<stop  offset="0.014" style="stop-color:#25277B"/>
				<stop  offset="1" style="stop-color:#7953A9"/>
			</linearGradient>
			<path class="st6" d="M965.02,732c0,0,0.51,77.74-115.13,146.09c-7.01,3.68-20.89,11.6-21.01,11.67l0.03,0.01
				c-97.01,57.52-166.39,147.23-201.12,248.8c-0.06,0.17-0.81,2.34-2.05,6.3c-3.16,9.67-6,19.45-8.53,29.3
				c13.19,26.91,30.28,51.64,50.78,73.37c8.16-138.77,102.59-268.77,254.67-305.34c13.74,17.14,25.38,35.06,35.15,53.49
				c40.58,18.63,77.89,42.23,111.54,70.52C1070.92,962.13,1049.74,836.89,965.02,732z"/>
			<linearGradient id="SVGID_8_" gradientUnits="userSpaceOnUse" x1="927.9887" y1="1125.1965" x2="631.6148" y2="1642.2964">
				<stop  offset="0.014" style="stop-color:#25277B"/>
				<stop  offset="1" style="stop-color:#7953A9"/>
			</linearGradient>
			<path class="st7" d="M740.7,1474.28c-13.74-17.14-25.38-35.07-35.16-53.5c-40.58-18.63-77.89-42.23-111.54-70.52
				c-1.57,104.08,19.61,229.32,104.34,334.21c0,0-0.51-77.75,115.14-146.1c7-3.67,20.88-11.6,21-11.66l-0.03-0.01
				c97-57.5,166.37-147.2,201.1-248.75c0,0,0.78-2.25,2.09-6.42c3.15-9.65,5.98-19.4,8.51-29.23
				c-13.19-26.91-30.27-51.64-50.78-73.38C987.22,1307.7,892.78,1437.7,740.7,1474.28z"/>
			<linearGradient id="SVGID_9_" gradientUnits="userSpaceOnUse" x1="529.1624" y1="1039.0651" x2="529.1624" y2="1039.0651">
				<stop  offset="0.014" style="stop-color:#25277B"/>
				<stop  offset="1" style="stop-color:#7953A9"/>
			</linearGradient>
			<path class="st8" d="M529.16,1039.07"/>
		</g>
	</g>
	<linearGradient id="SVGID_10_" gradientUnits="userSpaceOnUse" x1="1401.5323" y1="1208.2354" x2="3644.0842" y2="1208.2354">
		<stop  offset="0.014" style="stop-color:#25277B"/>
		<stop  offset="1" style="stop-color:#7953A9"/>
	</linearGradient>
	<path class="st9" d="M1485.57,1001.43v167.78h140.21v-167.78h84.03v419.34h-84.03v-168.05h-140.21v168.05h-84.03v-419.34H1485.57z
		 M1937.46,992.84l191.46,427.94h-91.31l-28.36-63.74h-143.6l-28.35,63.74h-91.05L1937.46,992.84z M1975.95,1282.65l-38.24-88.71
		l-38.77,88.71H1975.95z M2276.96,1001.42c65.87,0,117.44,26.18,153.23,61.66c37.46,37.63,56.19,87.1,56.19,148.41
		c0,61.3-18.73,110.61-56.19,147.9c-41.28,40.92-92.36,61.39-153.23,61.39h-111.59v-419.08h111.59V1001.42z M2276.7,1084.94h-27.31
		v251.82h28.09c75.6,0,124.87-50.19,124.87-125.91C2402.35,1135.81,2352.24,1084.94,2276.7,1084.94z M2661.74,992.84l191.46,427.94
		h-91.31l-28.36-63.74h-143.6l-28.35,63.74h-91.05L2661.74,992.84z M2700.23,1282.65l-38.24-88.71l-38.77,88.71H2700.23z
		 M2889.65,1001.43h136.83c46.7,0,84.45,17.62,109.78,42.66c25.53,25.53,40.58,48.81,40.58,95.21v10.92
		c0,28.27-8.84,54.89-26.53,79.86c-14.73,20.63-26.4,29.39-50.21,38.77l97.54,151.92h-103.01l-120.45-185.48v185.48h-84.28
		L2889.65,1001.43z M3089.96,1141.9c0-15.26-5.55-28.7-16.65-40.32c-10.94-10.64-31.71-16.65-52.03-16.65h-47.35v115.76h32.52v0.26
		h28.09C3065.26,1200.95,3089.96,1173.87,3089.96,1141.9z M3581.38,1060.74c41.81,41.8,62.71,92,62.71,150.62
		c0,58.8-20.9,108.92-62.71,150.37c-41.62,41.27-91.74,61.9-150.36,61.9c-58.79-0.17-108.91-20.81-150.36-61.9
		c-41.62-41.62-62.43-91.74-62.43-150.37c0-58.44,20.81-108.65,62.43-150.62c41.8-41.8,91.91-62.69,150.36-62.69
		C3489.46,998.05,3539.58,1018.94,3581.38,1060.74z M3340.76,1120.58c-24.97,25.32-37.46,55.4-37.46,90.26
		c0,35.21,12.49,65.3,37.46,90.28c24.8,24.79,54.89,37.19,90.26,37.19c34.86,0,64.86-12.4,90.01-37.19
		c25.16-24.8,37.73-54.9,37.73-90.28c0-35.03-12.57-65.12-37.73-90.26c-24.97-24.97-54.97-37.46-90.01-37.46
		C3395.47,1083.11,3365.38,1095.6,3340.76,1120.58z"/>
</g>
</svg>
